<?xml version="1.0" encoding="utf-8"?>
<!-- Generator: Adobe Illustrator 25.0.0, SVG Export Plug-In . SVG Version: 6.00 Build 0)  -->
<svg version="1.0" id="Layer_1" xmlns="http://www.w3.org/2000/svg" xmlns:xlink="http://www.w3.org/1999/xlink" x="0px" y="0px"
	 viewBox="0 0 1000 1000" enable-background="new 0 0 1000 1000" xml:space="preserve">
<g>
	<path fill="#FFFFFF" d="M420.208,404.093c-63.738-31.508,23.49-35.85,66.676-36.188h0.031l21.687-0.387l21.686,0.387h0.03
		c43.187,0.338,130.414,4.68,66.677,36.188c0,0,45.695,3.626,49.85-20.549c4.155-24.176-38.097-34.828-67.858-37.264
		c-29.76-2.435-70.385-2.729-70.385-2.729s-40.625,0.294-70.386,2.729c-29.761,2.436-72.013,13.088-67.858,37.264
		C374.513,407.719,420.208,404.093,420.208,404.093"/>
	<path fill="#FFFFFF" d="M482.634,564.303l23.383-47.658h-53.876l24.542-49.996l-0.556-0.815l-30.332-44.395
		c0,0-0.222-0.004-0.652-0.015c-9.34-0.206-117.549-2.757-209.747-11.99c-0.243-0.023-0.484-0.049-0.728-0.072
		c-39.05-3.93-75.169-9.061-99.604-15.725c0,0,0.072,0.088,0.209,0.263c4.293,5.334,72.002,90.658,72.947,164.544
		c0.016,0.883,0.016,1.768,0.008,2.649c-0.015,1.41-0.05,2.814-0.115,4.216c-0.003,0.057-0.007,0.118-0.007,0.182
		c-0.034,0.691-0.073,1.38-0.118,2.071c-0.023,0.358-0.05,0.713-0.077,1.071c0.065-0.034,89.397-46.583,163.061-41.498
		c-0.008-0.004-0.035-0.019-0.084-0.046c-0.035-0.018-0.084-0.042-0.141-0.072c-2.84-1.476-31.873-16.217-67.885-21.74
		c-0.111-0.015-0.217-0.031-0.324-0.05c-17.463-2.646-36.546-3.114-55.072,1.151c0,0-0.004-0.014-0.012-0.049
		c-0.004-0.027-0.015-0.065-0.027-0.115c-0.194-0.865-1.182-5.138-3.057-11.275c-0.004-0.012-0.007-0.027-0.011-0.038
		c-3.29-10.758-9.29-27.203-18.493-41.037c0,0,0.065,0.003,0.195,0.015h0.023c0.068,0.007,0.152,0.015,0.251,0.023
		c0.153,0.011,0.347,0.026,0.58,0.046c8.512,0.674,67.442,5.306,119.564,8.108c12.573,0.676,24.75,1.245,35.728,1.626
		c0.022,0.001,24.673,1.012,42.917,0.834l-49.445,99.787H482.634z"/>
	<path fill="#FFFFFF" d="M862.069,394.564c-0.354,0.091-0.717,0.183-1.079,0.274c-0.042,0.012-0.084,0.019-0.126,0.031
		c-0.404,0.103-0.808,0.202-1.22,0.301c-1.639,0.404-3.32,0.801-5.043,1.189c-0.431,0.1-0.862,0.195-1.296,0.29
		c-1.75,0.389-3.545,0.774-5.375,1.151c-0.9,0.187-1.811,0.37-2.73,0.553c-1.974,0.393-3.994,0.782-6.053,1.163
		c-0.751,0.137-1.51,0.278-2.276,0.415c-1.582,0.286-3.187,0.569-4.814,0.846c-0.485,0.08-0.968,0.164-1.457,0.245
		c-0.507,0.087-1.017,0.171-1.528,0.255c-2.047,0.343-4.121,0.675-6.229,1.002c-0.903,0.141-1.815,0.283-2.73,0.42
		c-0.148,0.027-0.301,0.05-0.453,0.069c-3.175,0.484-6.412,0.953-9.702,1.406c-2.241,0.313-4.51,0.621-6.801,0.919
		c-1.131,0.149-2.268,0.297-3.407,0.442c-0.549,0.072-1.098,0.141-1.647,0.21c-6.702,0.846-13.579,1.65-20.589,2.409
		c-0.812,0.088-1.628,0.175-2.444,0.267c-3.248,0.347-6.526,0.686-9.823,1.014c-1.441,0.145-2.886,0.286-4.335,0.427
		c-2.893,0.285-5.805,0.56-8.725,0.827l-3.248,0.297c-0.968,0.088-1.936,0.176-2.905,0.26c-2.344,0.209-4.693,0.415-7.045,0.613
		c-5.42,0.461-10.864,0.904-16.3,1.323c-0.465,0.038-0.93,0.072-1.395,0.107c-1.475,0.114-2.947,0.229-4.422,0.335
		c-0.008,0.004-0.015,0.004-0.027,0.004c-1.463,0.11-2.927,0.221-4.391,0.324c-2.943,0.217-5.878,0.427-8.806,0.629
		c-1.418,0.099-2.832,0.198-4.246,0.294c-0.046,0.003-0.096,0.007-0.142,0.007c-1.46,0.103-2.916,0.199-4.368,0.294
		c-1.529,0.103-3.05,0.201-4.567,0.301c-1.247,0.08-2.489,0.16-3.732,0.236c-3.728,0.237-7.43,0.461-11.097,0.679
		c-0.709,0.046-1.414,0.088-2.119,0.126c-4.945,0.289-9.82,0.564-14.608,0.827c-1.197,0.065-2.387,0.126-3.568,0.19
		c-6.278,0.332-12.404,0.641-18.329,0.923c-0.64,0.034-1.277,0.061-1.913,0.091c-0.816,0.038-1.632,0.077-2.44,0.115
		c-1.079,0.053-2.154,0.103-3.217,0.149c-2.246,0.102-4.457,0.201-6.633,0.297c-0.358,0.015-0.713,0.03-1.068,0.045
		c-1.422,0.065-2.824,0.122-4.216,0.183c-0.244,0.012-0.491,0.023-0.735,0.031c-0.446,0.019-0.893,0.038-1.334,0.057
		c-1.03,0.042-2.052,0.084-3.058,0.126c-0.674,0.031-1.346,0.057-2.009,0.084c-0.149,0.004-0.301,0.011-0.45,0.019
		c-0.385,0.015-0.766,0.031-1.147,0.046c-1.837,0.072-3.641,0.144-5.406,0.213c-0.53,0.019-1.059,0.038-1.585,0.061
		c-0.664,0.026-1.32,0.049-1.967,0.072c-0.614,0.023-1.224,0.046-1.826,0.069c-0.305,0.011-0.607,0.023-0.904,0.034
		c-0.48,0.019-0.953,0.035-1.425,0.054c-0.187,0.007-0.374,0.015-0.561,0.019c-0.316,0.011-0.633,0.023-0.945,0.034
		c-0.984,0.038-1.948,0.073-2.901,0.103c-0.656,0.023-1.3,0.046-1.94,0.069c-0.553,0.023-1.099,0.042-1.64,0.057
		c-1.353,0.046-2.668,0.091-3.953,0.133c-1.025,0.035-2.028,0.069-3.004,0.099c-1.483,0.05-2.912,0.096-4.288,0.138
		c-0.21,0.007-0.42,0.011-0.629,0.019c-0.252,0.007-0.504,0.015-0.755,0.022c-0.286,0.008-0.568,0.02-0.85,0.027
		c-0.179,0.004-0.362,0.012-0.542,0.015c-0.537,0.02-1.067,0.035-1.585,0.05c-0.271,0.008-0.542,0.015-0.808,0.023
		c-0.24,0.008-0.477,0.015-0.713,0.019c-0.523,0.015-1.029,0.031-1.529,0.046l-21.187,43.064h-0.191l-45.1,91.962l-4.022,8.2
		l-21.256,43.339h-0.046l-2.527,5.245l31.625,43.732l45.233-92.316h66.163l-26.357-47.658H574.82l-0.061,0.034l25.743-52.538
		c0.915-0.011,1.849-0.03,2.794-0.045c0.633-0.012,1.27-0.027,1.914-0.038h0.072c3.85-0.084,7.937-0.199,12.206-0.344
		c0.157-0.007,0.309-0.011,0.465-0.015c0.9-0.031,1.807-0.065,2.722-0.095c0.111-0.008,0.221-0.012,0.332-0.016
		c0.591-0.019,1.185-0.041,1.78-0.064c0.652-0.027,1.311-0.05,1.971-0.076c0.332-0.012,0.663-0.027,0.995-0.039
		c1.33-0.057,2.672-0.11,4.025-0.167c0.679-0.027,1.361-0.057,2.043-0.088c1.083-0.049,2.173-0.099,3.271-0.145
		c0.557-0.027,1.113-0.053,1.674-0.076c3.16-0.149,6.37-0.305,9.621-0.469c0.42-0.023,0.839-0.042,1.258-0.065
		c1.597-0.084,3.206-0.168,4.822-0.252c0.432-0.022,0.862-0.045,1.297-0.068c0.541-0.031,1.082-0.061,1.623-0.088
		c1.114-0.061,2.227-0.122,3.348-0.182c4.986-0.279,10.022-0.569,15.053-0.87c0.458-0.026,0.915-0.053,1.369-0.083
		c0.827-0.05,1.654-0.1,2.481-0.149c0.412-0.023,0.824-0.05,1.24-0.077c1.238-0.076,2.473-0.152,3.712-0.228
		c0.416-0.023,0.832-0.05,1.247-0.076c0.991-0.065,1.978-0.126,2.965-0.187c0.241-0.015,0.481-0.031,0.717-0.046
		c1.639-0.103,3.275-0.21,4.899-0.313c0.084-0.004,0.164-0.007,0.248-0.015c0.728-0.046,1.46-0.091,2.188-0.141
		c0.434-0.027,0.865-0.057,1.299-0.084c0.633-0.042,1.266-0.083,1.899-0.125c0.259-0.016,0.515-0.031,0.77-0.05
		c1.803-0.118,3.591-0.237,5.368-0.355c0.754-0.049,1.509-0.099,2.26-0.152c0.915-0.061,1.822-0.122,2.725-0.183
		c1.331-0.091,2.654-0.183,3.965-0.271c0.221-0.015,0.446-0.03,0.667-0.046c0.762-0.053,1.525-0.106,2.283-0.156
		c0.111-0.008,0.218-0.015,0.329-0.023c0.644-0.042,1.288-0.087,1.928-0.133c0.076-0.004,0.153-0.008,0.229-0.015
		c0.675-0.046,1.342-0.092,2.009-0.141c0.397-0.027,0.793-0.054,1.186-0.08c2.549-0.18,5.047-0.355,7.483-0.53
		c0.709-0.05,1.41-0.099,2.107-0.149c0.546-0.042,1.087-0.08,1.625-0.118c2.287-0.164,4.509-0.324,6.663-0.48
		c0.309-0.023,0.614-0.046,0.919-0.069c0.552-0.042,1.098-0.08,1.635-0.118c1.571-0.115,3.103-0.229,4.59-0.34
		c0.548-0.042,1.09-0.08,1.624-0.122c0.331-0.023,0.659-0.045,0.987-0.072c0.568-0.042,1.128-0.084,1.681-0.126
		c0.278-0.019,0.557-0.041,0.827-0.061c0.435-0.034,0.865-0.064,1.289-0.099c0.11-0.007,0.217-0.015,0.324-0.023
		c0.373-0.026,0.739-0.057,1.102-0.08c0.674-0.053,1.338-0.103,1.982-0.152c0.499-0.039,0.987-0.077,1.463-0.111
		c0.988-0.076,1.941-0.148,2.852-0.217c0.633-0.05,1.25-0.095,1.849-0.141h0.007c0.397-0.03,0.782-0.061,1.159-0.092
		c0.572-0.042,1.125-0.083,1.655-0.125c0.354-0.027,0.697-0.054,1.033-0.081c0.671-0.053,1.303-0.103,1.898-0.148
		c0.542-0.042,1.052-0.08,1.529-0.118c0.045-0.004,0.091-0.008,0.137-0.012c0.221-0.019,0.439-0.034,0.648-0.049
		c0.511-0.042,0.976-0.076,1.392-0.111c0.194-0.015,0.377-0.03,0.552-0.042c0.435-0.034,0.801-0.064,1.094-0.087
		c0.061-0.004,0.118-0.012,0.172-0.016c0.16-0.011,0.293-0.023,0.4-0.03c0.05-0.004,0.096-0.008,0.134-0.012
		c0.129-0.011,0.194-0.015,0.194-0.015c-0.236,0.355-0.469,0.713-0.702,1.071c-0.171,0.267-0.342,0.534-0.51,0.801
		c-0.1,0.148-0.195,0.301-0.29,0.453c-0.133,0.214-0.267,0.427-0.396,0.641c-0.732,1.182-1.441,2.375-2.127,3.583
		c-0.122,0.214-0.245,0.427-0.363,0.644c-0.331,0.588-0.655,1.174-0.976,1.765c-0.137,0.256-0.278,0.515-0.411,0.77
		c-0.633,1.182-1.243,2.371-1.83,3.557c-0.126,0.255-0.252,0.507-0.374,0.759c-0.438,0.888-0.861,1.776-1.269,2.66
		c-0.171,0.363-0.339,0.728-0.503,1.091c-0.595,1.3-1.167,2.596-1.712,3.877c-0.19,0.449-0.377,0.895-0.564,1.341
		c-0.046,0.115-0.096,0.225-0.141,0.34c-0.137,0.331-0.274,0.663-0.408,0.994c-2.085,5.116-3.781,9.965-5.119,14.151
		c-0.092,0.278-0.176,0.553-0.263,0.823c-0.283,0.889-0.546,1.75-0.793,2.573c-0.069,0.229-0.138,0.462-0.207,0.687
		c-0.049,0.163-0.099,0.327-0.144,0.492c-0.073,0.247-0.145,0.495-0.217,0.735c-0.298,1.037-0.569,1.997-0.808,2.874
		c-0.039,0.145-0.077,0.29-0.115,0.431c-0.156,0.565-0.294,1.09-0.419,1.578c-0.061,0.24-0.122,0.469-0.179,0.691
		c-0.122,0.479-0.233,0.907-0.325,1.284c-0.03,0.126-0.057,0.244-0.087,0.358c-0.004,0.023-0.008,0.042-0.016,0.062
		c-0.019,0.08-0.034,0.152-0.053,0.224c-0.015,0.073-0.034,0.141-0.046,0.206c-0.015,0.065-0.03,0.125-0.045,0.187
		c-0.016,0.06-0.031,0.122-0.042,0.175c-0.023,0.103-0.046,0.194-0.061,0.271c-0.012,0.042-0.019,0.076-0.027,0.111
		c-0.008,0.034-0.011,0.064-0.019,0.09c-0.011,0.05-0.023,0.088-0.026,0.116c-0.004,0.014-0.008,0.03-0.008,0.038
		c-0.004,0.007-0.004,0.01-0.004,0.01c-10.167-2.339-20.501-3.254-30.645-3.167c-0.324,0-0.652,0.003-0.976,0.011
		c-0.381,0.008-0.762,0.012-1.148,0.02c-0.495,0.01-0.987,0.026-1.482,0.042c-0.545,0.014-1.09,0.038-1.636,0.06
		c-0.545,0.024-1.086,0.046-1.631,0.076c-0.366,0.02-0.736,0.042-1.102,0.062c-0.32,0.019-0.644,0.038-0.965,0.061
		c-0.529,0.034-1.055,0.068-1.585,0.106c-0.404,0.031-0.808,0.061-1.212,0.096c-0.538,0.042-1.075,0.088-1.613,0.137
		c-1.913,0.175-3.816,0.377-5.707,0.61c-0.365,0.042-0.735,0.092-1.101,0.137c-1.544,0.199-3.073,0.415-4.594,0.648
		c-0.564,0.088-1.124,0.176-1.681,0.266c-0.56,0.088-1.117,0.184-1.674,0.279c-0.506,0.084-1.009,0.172-1.513,0.263
		c-3.293,0.591-6.522,1.25-9.663,1.963c-0.305,0.069-0.61,0.138-0.915,0.21c-1.33,0.309-2.645,0.625-3.946,0.95
		c-0.377,0.094-0.754,0.19-1.128,0.286c-2.935,0.751-5.783,1.54-8.531,2.351c-1.167,0.343-2.314,0.694-3.443,1.045
		c-0.053,0.015-0.102,0.034-0.156,0.049c-1.33,0.416-2.63,0.831-3.903,1.255c-0.138,0.045-0.279,0.091-0.416,0.137
		c-1.12,0.374-2.219,0.747-3.297,1.121c-0.046,0.014-0.095,0.03-0.141,0.05c-1.255,0.434-2.474,0.869-3.656,1.303
		c-0.042,0.011-0.08,0.027-0.118,0.041c-0.747,0.275-1.483,0.546-2.2,0.821c-0.186,0.068-0.377,0.14-0.564,0.212
		c-0.373,0.142-0.747,0.283-1.113,0.424c-0.549,0.213-1.087,0.423-1.62,0.629c-0.709,0.275-1.399,0.549-2.07,0.823
		c-0.168,0.069-0.336,0.133-0.5,0.203c-0.167,0.068-0.331,0.132-0.495,0.202c-0.328,0.133-0.648,0.262-0.969,0.396
		c-0.441,0.183-0.88,0.365-1.303,0.541c-0.03,0.012-0.065,0.027-0.095,0.042c-2.436,1.022-4.575,1.967-6.374,2.79
		c-0.339,0.153-0.664,0.302-0.976,0.45c-0.008,0.004-0.019,0.008-0.027,0.012c-0.305,0.141-0.598,0.277-0.876,0.411
		c-0.218,0.1-0.424,0.199-0.626,0.294c-0.431,0.202-0.831,0.397-1.197,0.575c-0.152,0.073-0.301,0.145-0.442,0.214
		c-0.072,0.034-0.141,0.069-0.209,0.103c-0.26,0.126-0.496,0.244-0.713,0.35c-0.012,0.008-0.023,0.012-0.035,0.02
		c-0.11,0.057-0.217,0.11-0.32,0.16c-0.148,0.072-0.286,0.141-0.408,0.206c-0.122,0.061-0.232,0.118-0.328,0.167
		c-0.293,0.149-0.449,0.233-0.468,0.244c73.664-5.085,162.995,41.464,163.06,41.498c-0.027-0.358-0.054-0.713-0.077-1.071
		c-0.023-0.358-0.045-0.713-0.065-1.071c-0.042-0.743-0.076-1.49-0.103-2.234c-0.022-0.629-0.041-1.257-0.053-1.887
		c-0.026-1.304-0.03-2.615-0.011-3.926c0.004-0.526,0.015-1.053,0.03-1.582c0-0.069,0-0.138,0.004-0.206
		c0.011-0.355,0.023-0.709,0.038-1.064c0.004-0.256,0.015-0.514,0.027-0.77c0.019-0.48,0.042-0.96,0.068-1.441
		c0-0.061,0.004-0.118,0.012-0.179c0.023-0.507,0.053-1.014,0.092-1.517c0-0.106,0.007-0.214,0.019-0.316
		c0.019-0.29,0.038-0.58,0.064-0.869c0.023-0.405,0.058-0.809,0.092-1.212c0.042-0.519,0.088-1.037,0.141-1.556
		c0.023-0.294,0.053-0.587,0.084-0.881c0.038-0.415,0.083-0.827,0.129-1.242c0.008-0.092,0.019-0.184,0.031-0.274
		c0.045-0.417,0.091-0.832,0.145-1.251c0.038-0.332,0.08-0.667,0.122-1.002c0.027-0.214,0.053-0.428,0.084-0.641
		c0.061-0.488,0.129-0.98,0.202-1.472c-0.004-0.004-0.004-0.008,0-0.015c0.057-0.423,0.122-0.85,0.186-1.277
		c0.073-0.496,0.149-0.991,0.229-1.487c0.084-0.537,0.172-1.074,0.263-1.612c0.122-0.736,0.252-1.472,0.393-2.211
		c0.068-0.385,0.137-0.77,0.213-1.156c0.054-0.296,0.115-0.594,0.172-0.891c0.095-0.503,0.198-1.007,0.301-1.51
		c0.088-0.438,0.179-0.873,0.275-1.308c0.076-0.38,0.16-0.762,0.247-1.143c0.107-0.495,0.217-0.995,0.332-1.49
		c0.267-1.186,0.549-2.368,0.842-3.549c0.245-0.987,0.496-1.971,0.759-2.959c0.362-1.391,0.747-2.782,1.144-4.17
		c0.175-0.609,0.354-1.22,0.533-1.826c0.225-0.77,0.457-1.536,0.694-2.303c0.137-0.445,0.275-0.895,0.415-1.342
		c0.374-1.188,0.755-2.374,1.148-3.559c0.434-1.316,0.881-2.623,1.342-3.927c0.156-0.454,0.316-0.907,0.476-1.357
		c0.172-0.484,0.347-0.968,0.523-1.449c0.164-0.453,0.327-0.903,0.495-1.349c0.05-0.138,0.099-0.271,0.149-0.404
		c0.141-0.382,0.282-0.759,0.427-1.136c0.152-0.416,0.308-0.828,0.469-1.239c0.225-0.595,0.453-1.19,0.686-1.78
		c0.217-0.561,0.438-1.121,0.659-1.678c0.027-0.072,0.057-0.145,0.084-0.213c0.221-0.553,0.442-1.106,0.667-1.655
		c0.477-1.178,0.961-2.352,1.452-3.518c0.245-0.587,0.493-1.17,0.744-1.75c0.248-0.583,0.499-1.163,0.751-1.742
		c0.755-1.738,1.525-3.465,2.306-5.177c0.263-0.572,0.523-1.143,0.785-1.711c0.264-0.568,0.53-1.137,0.793-1.7
		c0.53-1.133,1.068-2.257,1.609-3.378c0.507-1.052,1.022-2.097,1.532-3.137c0.035-0.065,0.069-0.134,0.1-0.198
		c0.495-0.995,0.991-1.987,1.49-2.974c0.057-0.106,0.111-0.213,0.164-0.32c0.278-0.545,0.557-1.091,0.835-1.632
		c1.113-2.169,2.242-4.307,3.377-6.415c0.283-0.527,0.565-1.049,0.85-1.571c0.283-0.522,0.568-1.044,0.854-1.563
		c2.055-3.747,4.129-7.38,6.191-10.883c0.275-0.469,0.549-0.93,0.824-1.392c0.545-0.922,1.09-1.833,1.635-2.737
		c0.289-0.48,0.579-0.96,0.869-1.437c0.526-0.865,1.048-1.719,1.571-2.562c3.503-5.675,6.907-10.921,10.079-15.633
		c0.377-0.564,0.754-1.121,1.124-1.669c0.587-0.862,1.167-1.708,1.731-2.528c0.232-0.339,0.461-0.671,0.69-0.998
		c2.539-3.672,4.868-6.923,6.9-9.699c0.164-0.224,0.324-0.441,0.484-0.659c0.534-0.728,1.048-1.422,1.54-2.081
		c0.13-0.172,0.255-0.344,0.381-0.515c0.415-0.553,0.812-1.079,1.186-1.578c0.152-0.198,0.301-0.393,0.446-0.583
		c0.079-0.107,0.156-0.21,0.236-0.309c0.13-0.179,0.263-0.351,0.393-0.518l0.004-0.004c0.129-0.172,0.255-0.339,0.38-0.5
		c0.26-0.339,0.508-0.659,0.74-0.961c0.229-0.296,0.446-0.575,0.648-0.834c0.076-0.099,0.153-0.198,0.229-0.294
		c0.019-0.026,0.042-0.053,0.061-0.08c0.141-0.179,0.271-0.347,0.396-0.503c0.016-0.023,0.034-0.042,0.054-0.065
		c0.053-0.072,0.11-0.144,0.163-0.209c0.02-0.027,0.039-0.05,0.058-0.073c0.141-0.179,0.267-0.339,0.381-0.476
		c0.019-0.031,0.046-0.061,0.069-0.088c0.133-0.172,0.247-0.313,0.335-0.42c0.084-0.11,0.145-0.186,0.179-0.224
		c0.008-0.008,0.012-0.015,0.02-0.023c0.007-0.011,0.011-0.015,0.011-0.015C864.436,393.95,863.266,394.259,862.069,394.564"/>
</g>
</svg>
