<svg xmlns="http://www.w3.org/2000/svg" viewBox="0 0 730.52 313.07"><defs><style>.cls-1{fill:#acc6e8}</style></defs><g id="Layer_2" data-name="Layer 2"><g id="Layer_1-2" data-name="Layer 1"><path class="cls-1" d="M285.14 60.54C221.41 29 308.63 24.69 351.82 24.35l21.72-.35 21.68.38c43.18.34 130.41 4.68 66.67 36.19 0 0 45.7 3.63 49.85-20.55S473.68 5.16 443.92 2.73 373.54 0 373.54 0s-40.63.29-70.39 2.73-72 13.09-67.86 37.26 49.85 20.55 49.85 20.55ZM347.57 220.75 371 173.09h-53.92l24.54-50-.56-.82-30.33-44.38h-.65c-9.34-.2-117.55-2.75-209.75-12l-.73-.07C60.6 61.89 24.44 56.76 0 50.1l.21.26c4.29 5.33 72 90.66 73 164.54v2.65c0 1.41 0 2.81-.11 4.22v.18q0 1-.12 2.07c0 .36 0 .71-.07 1.07.06 0 89.39-46.58 163.06-41.5h-.09l-.14-.07a239.38 239.38 0 0 0-67.88-21.74h-.33c-17.46-2.65-36.54-3.12-55.07 1.15v-.05a.35.35 0 0 0 0-.12c-.19-.86-1.18-5.14-3-11.27-3.29-10.76-9.29-27.2-18.5-41h.45l.58.05c8.51.67 67.44 5.3 119.57 8.1 12.57.68 24.75 1.25 35.72 1.63 0 0 24.68 1 42.92.83l-49.44 99.79ZM727 51l-1.08.28h-.13l-1.22.3q-2.46.6-5 1.19l-1.3.29q-2.62.59-5.37 1.15l-2.73.55q-3 .59-6.06 1.16l-2.27.42c-1.58.29-3.19.57-4.82.85l-1.45.24-1.53.25c-2 .35-4.12.68-6.23 1l-2.73.42-.45.07q-4.77.72-9.7 1.4c-2.25.31-4.51.62-6.81.92l-3.4.44-1.65.21c-6.7.85-13.58 1.65-20.59 2.41l-2.44.27c-3.25.35-6.53.68-9.83 1l-4.33.43c-2.89.29-5.81.56-8.73.83l-3.24.29-2.91.26-7 .62c-5.42.46-10.87.9-16.3 1.32l-1.4.11-4.42.33-4.39.32-8.8.63-4.25.29h-.14l-4.37.29-4.57.3-3.73.24c-3.73.24-7.43.46-11.1.68l-2.12.13c-4.94.29-9.82.56-14.6.82l-3.57.19c-6.28.33-12.41.64-18.33.93l-2.01.17-2.44.11-3.22.15-6.63.3h-1.07l-4.22.19h-.73l-1.34.05-3.05.2-2 .08h-.45l-1.15.05-5.41.21-1.58.06-2 .08-1.83.06h-.9l-1.42.05h-1.51l-2.9.1-1.94.07-1.64.05-3.95.14-3 .1-4.29.13h-7.41l-21.18 43.07h-.19l-45.1 92-4 8.2-21.25 43.34h-.1l-2.53 5.25 31.63 43.73 45.23-92.32h66.16l-26.35-47.66H439.7l25.74-52.54h4.78c3.85-.09 7.94-.2 12.21-.35h.46l2.72-.1h.33l1.78-.07 2-.07h1l4-.17 2-.09 3.27-.14 1.67-.08c3.16-.15 6.37-.3 9.62-.47l1.26-.06 4.82-.25 1.3-.07 1.62-.09 3.35-.18 15.06-.87 1.36-.09 2.49-.15 1.23-.07 3.72-.23 1.24-.08 3-.18h.72l4.89-.31h.25l2.19-.14 1.3-.08 1.9-.13h.77l5.37-.35 2.26-.15 2.72-.19 4-.27h.66l2.29-.16h.33l1.92-.14h.23l2-.14 1.19-.08 7.48-.53 2.11-.15 1.62-.12 6.67-.48.91-.07 1.64-.12 4.59-.34 1.62-.12 1-.07 1.68-.13c.28 0 .56 0 .83-.06l1.29-.1h.32l1.1-.08 2-.15 1.46-.11 2.85-.22 1.85-.14 1.16-.09 1.65-.13 1-.08 1.9-.15 1.53-.11h.79l1.39-.11h.55l1.09-.09H639.72l-.7 1.07-.51.8-.29.46-.39.64c-.74 1.18-1.45 2.37-2.13 3.58-.12.21-.25.43-.36.65-.34.58-.66 1.17-1 1.76l-.41.77c-.63 1.18-1.24 2.37-1.83 3.56-.13.25-.25.5-.37.76-.44.88-.87 1.77-1.27 2.66-.18.36-.34.72-.51 1.09q-.88 1.95-1.71 3.87c-.19.45-.38.9-.56 1.35-.05.11-.1.22-.14.33-.14.34-.28.67-.41 1-2.09 5.12-3.78 10-5.12 14.15-.09.28-.18.55-.26.82-.29.89-.55 1.75-.8 2.58-.07.23-.13.46-.2.68l-.15.49c-.07.25-.14.5-.22.74l-.8 2.87-.12.44-.42 1.57q-.09.36-.18.69c-.12.48-.23.91-.32 1.29l-.09.36v.06l-.06.22v.21c0 .07 0 .12-.05.18s0 .13 0 .18 0 .19-.06.27v.11a.64.64 0 0 1 0 .09.74.74 0 0 0 0 .12 131.55 131.55 0 0 0-30.65-3.17H584l-1.63.06-1.63.08-1.1.06-1 .06-1.59.11-1.21.09-1.61.14c-1.91.18-3.82.38-5.71.61l-1.1.14c-1.54.2-3.07.41-4.59.65l-1.83.2-1.68.28-1.51.26c-3.29.59-6.52 1.25-9.66 2l-.92.21c-1.33.3-2.64.62-3.94.95l-1.13.28c-2.94.75-5.78 1.54-8.53 2.35l-3.45 1.05h-.15c-1.33.41-2.63.83-3.91 1.25l-.41.14c-1.12.37-2.22.75-3.3 1.12h-.14c-1.25.43-2.47.87-3.66 1.3h-.11l-2.2.82-.57.22-1.11.42-1.62.63c-.71.27-1.4.55-2.07.82l-.5.21-.5.2-1 .39-1.31.55h-.09c-2.44 1-4.58 2-6.38 2.79l-1 .45-.88.41-.62.29-1.2.58-.44.21-.21.11-.71.35-.32.16-.4.2-.33.17-.47.24c73.66-5.08 163 41.47 163.06 41.5 0-.36 0-.71-.08-1.07l-.06-1.07c0-.74-.08-1.49-.11-2.23s0-1.26 0-1.89V211.1c0-.48 0-1 .07-1.44a1.09 1.09 0 0 1 0-.18c0-.51.05-1 .09-1.52v-.31l.06-.87c0-.41.06-.81.1-1.21s.08-1 .14-1.56c0-.29 0-.59.08-.88s.08-.83.13-1.24v-.28c0-.41.09-.83.15-1.25s.08-.67.12-1 0-.43.08-.64c.06-.49.13-1 .2-1.47.06-.42.13-.85.19-1.28s.15-1 .23-1.48.17-1.08.26-1.61q.18-1.11.39-2.22c.07-.38.14-.77.22-1.15s.11-.59.17-.89l.3-1.51c.09-.44.18-.87.28-1.31s.16-.76.24-1.14l.33-1.49c.27-1.19.55-2.37.85-3.55.24-1 .49-2 .76-3q.54-2.09 1.14-4.17c.18-.61.35-1.22.53-1.83.23-.77.46-1.53.7-2.3.13-.45.27-.9.41-1.34.38-1.19.76-2.38 1.15-3.56s.88-2.62 1.34-3.93l.48-1.36.52-1.44c.16-.46.33-.91.5-1.35 0-.14.1-.27.14-.41.15-.38.29-.76.43-1.13s.31-.83.47-1.24c.23-.6.45-1.19.69-1.78s.44-1.12.66-1.68a1.8 1.8 0 0 1 .08-.21c.22-.56.44-1.11.67-1.66.47-1.18 1-2.35 1.45-3.52.24-.58.49-1.17.74-1.75l.75-1.74q1.14-2.61 2.31-5.17c.26-.58.52-1.15.79-1.72s.53-1.13.79-1.7c.53-1.13 1.07-2.25 1.61-3.37s1-2.1 1.53-3.14c0-.07.07-.13.1-.2.49-1 1-2 1.49-3 .06-.11.11-.22.16-.32l.84-1.63q1.67-3.25 3.38-6.42c.28-.53.56-1 .85-1.57s.56-1 .85-1.56c2-3.75 4.13-7.38 6.19-10.89.27-.47.55-.93.82-1.39l1.64-2.74.87-1.43c.52-.87 1.05-1.72 1.57-2.56C705.1 86 708.51 80.7 711.68 76l1.12-1.67 1.73-2.52c.24-.34.46-.68.69-1 2.54-3.67 4.87-6.93 6.9-9.7l.49-.66c.53-.73 1-1.42 1.54-2.08l.38-.52 1.18-1.58c.16-.19.3-.39.45-.58l.24-.31.39-.52.38-.5.74-1 .65-.83.23-.3.06-.08.4-.5v-.07l.16-.21.06-.07.38-.47.07-.09.34-.42a2.34 2.34 0 0 1 .18-.23c-1.07.31-2.24.62-3.44.91Z"/></g></g></svg>